<svg id="Capa_1" enable-background="new 0 0 480.001 480.001" height="512" viewBox="0 0 480.001 480.001" width="512" xmlns="http://www.w3.org/2000/svg"><g><g id="outline_17_"><path d="m184.001 80.001c3.002-.008 5.883 1.185 8 3.313l2.343 2.344 11.314-11.314-2.344-2.343c-10.666-10.666-27.959-10.666-38.625-.001 0 0-.001.001-.001.001l-2.344 2.343 11.314 11.314 2.343-2.344c2.117-2.128 4.998-3.321 8-3.313z"/><path d="m283.314 72.001c-10.666-10.666-27.959-10.666-38.625-.001 0 0-.001.001-.001.001l-2.344 2.343 11.314 11.314 2.343-2.344c4.419-4.418 11.581-4.418 16 0l2.343 2.344 11.314-11.314z"/><path d="m130.726 132.707h32v16h-32z" transform="matrix(.966 -.259 .259 .966 -31.415 42.764)"/><path d="m293.276 124.708h16v32h-16z" transform="matrix(.259 -.966 .966 .259 87.387 395.3)"/><path d="m285.275 99.86h32v16h-32z" transform="matrix(.966 -.259 .259 .966 -17.65 81.651)"/><path d="m138.727 91.86h16v32h-16z" transform="matrix(.259 -.966 .966 .259 4.566 221.671)"/><path d="m24.001 480.001h64c15.38.017 30.357-4.917 42.715-14.072 26.434 9.34 57.779 14.072 93.285 14.072 40.925 0 76.053-6.215 104.638-18.492 2.569 10.828 12.233 18.478 23.362 18.492h64c13.249-.015 23.985-10.751 24-24 0-12.585-5.928-24.434-16-31.98v-56.02c-.001-12.673-6.012-24.594-16.2-32.13-.57-11.027-2.103-21.983-4.582-32.743 34.978-5.566 60.737-35.709 60.782-71.127v-81.371c9.582-3.401 15.988-12.462 16-22.629-.025-22.081-17.919-39.975-40-40h-32c-22.081.025-39.975 17.919-40 40 .012 10.167 6.418 19.228 16 22.629v57.371c-.01 8.832-7.168 15.99-16 16v.3c-4.454-6.36-9.244-12.477-14.35-18.325 12.136-5.331 17.652-19.49 12.321-31.626-2.666-6.068-7.722-10.764-13.971-12.974v-25.375c.025-20.591-6.099-40.721-17.586-57.81l-5.414-59.503c-1.027-11.301-11.02-19.63-22.321-18.603-4.152.377-8.091 2.009-11.294 4.678l-33.75 28.128c-4.521-.594-9.075-.891-13.635-.89h-48c-4.56-.001-9.114.296-13.635.89l-33.753-28.127c-8.718-7.263-21.674-6.083-28.937 2.636-2.667 3.202-4.298 7.139-4.675 11.288l-5.41 59.5c-11.489 17.09-17.614 37.22-17.59 57.813v25.371c-12.497 4.419-19.045 18.132-14.627 30.628 2.21 6.249 6.905 11.306 12.973 13.972-5.029 5.757-9.751 11.775-14.147 18.029h-8.2c-22.081.025-39.975 17.919-40 40 .009 9.292 5.373 17.747 13.777 21.712-18.7 13.529-29.774 35.207-29.777 58.288v64c-.003 5.004.517 9.995 1.549 14.892-10.956 7.463-17.523 19.852-17.549 33.108.016 13.249 10.752 23.986 24.001 24zm392-16h-8v-16h-16v16h-16v-16h-16v16h-8c-4.416-.005-7.995-3.584-8-8 .015-13.249 10.751-23.985 24-24h32c13.249.015 23.985 10.751 24 24-.005 4.417-3.584 7.995-8 8zm-16-48h-32c-2.687-.003-5.367.266-8 .8v-48.8c0-13.255 10.745-24 24-24s24 10.745 24 24v48.8c-2.633-.534-5.313-.802-8-.8zm8-312h32c13.249.015 23.985 10.751 24 24-.005 4.416-3.584 7.995-8 8h-8v-16h-16v16h-16v-16h-16v16h-8c-4.416-.005-7.995-3.584-8-8 .015-13.248 10.751-23.985 24-24zm-8 104v-56h48v80c-.036 28.194-20.996 51.979-48.961 55.56-2.337-7.543-5.069-14.959-8.185-22.215-3.944-9.19-8.485-18.113-13.592-26.712 13.491-4.099 22.72-16.532 22.738-30.633zm-94.368-190.946c1.929-1.607 4.795-1.347 6.403.581.591.709.952 1.581 1.035 2.5l3.424 37.665c-10.311-9.054-22.311-15.978-35.31-20.375zm-166.174-1.054c1.063.001 2.093.373 2.91 1.054l24.448 20.374c-12.998 4.396-24.999 11.319-35.31 20.372l3.424-37.668c.204-2.345 2.173-4.142 4.528-4.132zm-27.458 120c.055-48.578 39.422-87.945 88-88h48c48.578.055 87.945 39.422 88 88v24h-224zm-8 40h240c4.418 0 8 3.582 8 8s-3.582 8-8 8h-240c-4.418 0-8-3.582-8-8s3.581-8 8-8zm136 48c-.003 5.714-3.052 10.993-8 13.852v-13.852h-16v13.852c-7.653-4.418-10.275-14.204-5.856-21.856 4.418-7.653 14.204-10.275 21.856-5.856 4.952 2.859 8.001 8.143 8 13.86zm-125.705-16h82c-8.844 15.301-3.61 34.875 11.691 43.719s34.875 3.61 43.719-11.691c5.727-9.908 5.727-22.119 0-32.027h82c31.681 32.1 53.246 77.779 57.518 120.654-21.74-3.98-42.589 10.417-46.569 32.157-.434 2.372-.653 4.778-.654 7.189v56.02c-6.461 4.855-11.308 11.547-13.906 19.2-27.794 13.789-63.467 20.78-106.094 20.78-30.218 0-57.108-3.56-80.16-10.6 10.466-12.814 16.176-28.855 16.16-45.4v-64c-.003-23.081-11.077-44.759-29.777-58.288 8.404-3.965 13.768-12.42 13.777-21.712-.025-22.081-17.919-39.975-40-40h-3.843c4.416-5.589 9.136-10.93 14.138-16.001zm-42.295 32h32c13.249.015 23.985 10.751 24 24-.005 4.416-3.584 7.995-8 8h-8v-16h-16v16h-16v-16h-16v16h-8c-4.416-.005-7.995-3.584-8-8 .015-13.248 10.751-23.985 24-24zm-40 104c0-30.928 25.072-56 56-56s56 25.072 56 56v64c0 30.928-25.072 56-56 56s-56-25.072-56-56zm-8.964 95.031c4.653 9.685 11.401 18.214 19.757 24.969h-18.793c-4.416-.005-7.995-3.584-8-8 .011-6.363 2.541-12.464 7.036-16.969z"/><path d="m56.001 320.001h64v16h-64z"/><path d="m56.001 352.001h64v16h-64z"/><path d="m56.001 384.001h64v16h-64z"/><path d="m56.001 416.001h64v16h-64z"/><path d="m256.001 116.001c0 6.627-5.373 12-12 12s-12-5.373-12-12v-4c0-4.418-3.582-8-8-8s-8 3.582-8 8v4c0 6.627-5.373 12-12 12s-12-5.373-12-12v-4h-16v4c-.007 15.457 12.517 27.993 27.974 28 7.537.003 14.757-3.033 20.026-8.423 10.805 11.053 28.524 11.254 39.577.449 5.39-5.269 8.426-12.489 8.423-20.026v-4h-16z"/></g></g></svg>